<mxfile host="app.diagrams.net" modified="2023-11-14T00:43:54.416Z" agent="Mozilla/5.0 (Macintosh; Intel Mac OS X 10.15; rv:109.0) Gecko/20100101 Firefox/119.0" etag="zFGOoSOSAg-bNaIYdFwO" version="22.1.0" type="device">
  <diagram name="Page-1" id="ZIDx4KDGT3R9QqGa4N3I">
    <mxGraphModel dx="714" dy="591" grid="1" gridSize="10" guides="1" tooltips="1" connect="1" arrows="1" fold="1" page="1" pageScale="1" pageWidth="850" pageHeight="1100" math="0" shadow="0">
      <root>
        <mxCell id="0" />
        <mxCell id="1" parent="0" />
        <mxCell id="xFx0nTFk6FgpMXT4F62A-3" value="Frame of B" style="text;html=1;strokeColor=none;fillColor=none;align=center;verticalAlign=middle;whiteSpace=wrap;rounded=0;fontSize=16;" vertex="1" parent="1">
          <mxGeometry x="190" y="410" width="90" height="30" as="geometry" />
        </mxCell>
        <mxCell id="xFx0nTFk6FgpMXT4F62A-1" value="" style="endArrow=classic;html=1;rounded=0;fontSize=12;startSize=8;endSize=8;curved=1;" edge="1" parent="1">
          <mxGeometry width="50" height="50" relative="1" as="geometry">
            <mxPoint x="100" y="400" as="sourcePoint" />
            <mxPoint x="360" y="400" as="targetPoint" />
          </mxGeometry>
        </mxCell>
        <mxCell id="xFx0nTFk6FgpMXT4F62A-2" value="" style="endArrow=classic;html=1;rounded=0;fontSize=12;startSize=8;endSize=8;curved=1;" edge="1" parent="1">
          <mxGeometry width="50" height="50" relative="1" as="geometry">
            <mxPoint x="100" y="400" as="sourcePoint" />
            <mxPoint x="100" y="140" as="targetPoint" />
          </mxGeometry>
        </mxCell>
        <mxCell id="xFx0nTFk6FgpMXT4F62A-6" value="" style="endArrow=classic;html=1;rounded=0;fontSize=12;startSize=8;endSize=8;curved=1;" edge="1" parent="1">
          <mxGeometry width="50" height="50" relative="1" as="geometry">
            <mxPoint x="310.8366666666666" y="264.99666666666667" as="sourcePoint" />
            <mxPoint x="245.8366666666666" y="264.99666666666667" as="targetPoint" />
          </mxGeometry>
        </mxCell>
        <mxCell id="xFx0nTFk6FgpMXT4F62A-7" value="" style="endArrow=classic;html=1;rounded=0;fontSize=12;startSize=8;endSize=8;curved=1;strokeWidth=1;" edge="1" parent="1">
          <mxGeometry width="50" height="50" relative="1" as="geometry">
            <mxPoint x="310.8366666666666" y="264.99666666666667" as="sourcePoint" />
            <mxPoint x="310.8366666666666" y="199.99666666666667" as="targetPoint" />
          </mxGeometry>
        </mxCell>
        <mxCell id="xFx0nTFk6FgpMXT4F62A-8" value="C" style="text;html=1;strokeColor=none;fillColor=none;align=center;verticalAlign=middle;whiteSpace=wrap;rounded=0;fontSize=16;" vertex="1" parent="1">
          <mxGeometry x="259.99666666666656" y="210.82666666666665" width="43.33333333333333" height="43.33333333333333" as="geometry" />
        </mxCell>
        <mxCell id="xFx0nTFk6FgpMXT4F62A-9" value="&lt;font style=&quot;font-size: 16px;&quot;&gt;-0.78c&lt;/font&gt;" style="text;html=1;strokeColor=none;fillColor=none;align=center;verticalAlign=middle;whiteSpace=wrap;rounded=0;fontSize=16;" vertex="1" parent="1">
          <mxGeometry x="260.00333333333333" y="278.3333333333333" width="43.33333333333333" height="21.666666666666664" as="geometry" />
        </mxCell>
        <mxCell id="xFx0nTFk6FgpMXT4F62A-14" value="" style="group;flipH=1;" vertex="1" connectable="0" parent="1">
          <mxGeometry x="79.99666666666661" y="199.99666666666667" width="130.0033333333334" height="65" as="geometry" />
        </mxCell>
        <mxCell id="xFx0nTFk6FgpMXT4F62A-15" value="" style="endArrow=classic;html=1;rounded=0;fontSize=12;startSize=8;endSize=8;curved=1;" edge="1" parent="xFx0nTFk6FgpMXT4F62A-14">
          <mxGeometry width="50" height="50" relative="1" as="geometry">
            <mxPoint x="43.33333333333337" y="65" as="sourcePoint" />
            <mxPoint x="108.33333333333337" y="65" as="targetPoint" />
          </mxGeometry>
        </mxCell>
        <mxCell id="xFx0nTFk6FgpMXT4F62A-16" value="" style="endArrow=classic;html=1;rounded=0;fontSize=12;startSize=8;endSize=8;curved=1;strokeWidth=1;" edge="1" parent="xFx0nTFk6FgpMXT4F62A-14">
          <mxGeometry width="50" height="50" relative="1" as="geometry">
            <mxPoint x="43.33333333333337" y="65" as="sourcePoint" />
            <mxPoint x="43.33333333333337" as="targetPoint" />
          </mxGeometry>
        </mxCell>
        <mxCell id="xFx0nTFk6FgpMXT4F62A-19" value="A" style="text;html=1;strokeColor=none;fillColor=none;align=center;verticalAlign=middle;whiteSpace=wrap;rounded=0;fontSize=16;" vertex="1" parent="xFx0nTFk6FgpMXT4F62A-14">
          <mxGeometry x="50.00333333333339" y="17.503333333333345" width="60" height="30" as="geometry" />
        </mxCell>
        <mxCell id="xFx0nTFk6FgpMXT4F62A-20" value="+&lt;font style=&quot;font-size: 16px;&quot;&gt;0.31c&lt;/font&gt;" style="text;html=1;strokeColor=none;fillColor=none;align=center;verticalAlign=middle;whiteSpace=wrap;rounded=0;fontSize=16;" vertex="1" parent="1">
          <mxGeometry x="140.00333333333333" y="278.3333333333333" width="43.33333333333333" height="21.666666666666664" as="geometry" />
        </mxCell>
        <mxCell id="xFx0nTFk6FgpMXT4F62A-21" value="" style="endArrow=classic;html=1;rounded=0;fontSize=12;startSize=8;endSize=8;curved=1;" edge="1" parent="1">
          <mxGeometry width="50" height="50" relative="1" as="geometry">
            <mxPoint x="340" y="170" as="sourcePoint" />
            <mxPoint x="460" y="170" as="targetPoint" />
            <Array as="points">
              <mxPoint x="400" y="110" />
            </Array>
          </mxGeometry>
        </mxCell>
        <mxCell id="xFx0nTFk6FgpMXT4F62A-22" value="Switch to frame of A" style="text;html=1;strokeColor=none;fillColor=none;align=center;verticalAlign=middle;whiteSpace=wrap;rounded=0;fontSize=16;" vertex="1" parent="1">
          <mxGeometry x="365" y="181" width="85" height="39" as="geometry" />
        </mxCell>
        <mxCell id="xFx0nTFk6FgpMXT4F62A-23" value="" style="endArrow=classic;html=1;rounded=0;fontSize=12;startSize=8;endSize=8;curved=1;" edge="1" parent="1">
          <mxGeometry width="50" height="50" relative="1" as="geometry">
            <mxPoint x="480" y="400" as="sourcePoint" />
            <mxPoint x="740" y="400" as="targetPoint" />
          </mxGeometry>
        </mxCell>
        <mxCell id="xFx0nTFk6FgpMXT4F62A-24" value="" style="endArrow=classic;html=1;rounded=0;fontSize=12;startSize=8;endSize=8;curved=1;" edge="1" parent="1">
          <mxGeometry width="50" height="50" relative="1" as="geometry">
            <mxPoint x="480" y="400" as="sourcePoint" />
            <mxPoint x="480" y="140" as="targetPoint" />
          </mxGeometry>
        </mxCell>
        <mxCell id="xFx0nTFk6FgpMXT4F62A-25" value="Frame of A" style="text;html=1;strokeColor=none;fillColor=none;align=center;verticalAlign=middle;whiteSpace=wrap;rounded=0;fontSize=16;" vertex="1" parent="1">
          <mxGeometry x="570" y="410" width="90" height="30" as="geometry" />
        </mxCell>
        <mxCell id="xFx0nTFk6FgpMXT4F62A-26" value="B" style="text;html=1;strokeColor=none;fillColor=none;align=center;verticalAlign=middle;whiteSpace=wrap;rounded=0;fontSize=16;" vertex="1" parent="1">
          <mxGeometry x="570" y="310" width="90" height="30" as="geometry" />
        </mxCell>
        <mxCell id="xFx0nTFk6FgpMXT4F62A-27" value="" style="endArrow=classic;html=1;rounded=0;fontSize=12;startSize=8;endSize=8;curved=1;" edge="1" parent="1">
          <mxGeometry width="50" height="50" relative="1" as="geometry">
            <mxPoint x="140" y="310" as="sourcePoint" />
            <mxPoint x="180" y="310" as="targetPoint" />
          </mxGeometry>
        </mxCell>
        <mxCell id="xFx0nTFk6FgpMXT4F62A-28" value="" style="endArrow=classic;html=1;rounded=0;fontSize=12;startSize=8;endSize=8;curved=1;" edge="1" parent="1">
          <mxGeometry width="50" height="50" relative="1" as="geometry">
            <mxPoint x="303.32999999999987" y="310" as="sourcePoint" />
            <mxPoint x="263.32999999999987" y="310" as="targetPoint" />
          </mxGeometry>
        </mxCell>
        <mxCell id="xFx0nTFk6FgpMXT4F62A-29" value="" style="endArrow=classic;html=1;rounded=0;fontSize=12;startSize=8;endSize=8;curved=1;" edge="1" parent="1">
          <mxGeometry width="50" height="50" relative="1" as="geometry">
            <mxPoint x="710" y="340" as="sourcePoint" />
            <mxPoint x="530" y="340" as="targetPoint" />
          </mxGeometry>
        </mxCell>
        <mxCell id="xFx0nTFk6FgpMXT4F62A-30" value="" style="endArrow=classic;html=1;rounded=0;fontSize=12;startSize=8;endSize=8;curved=1;" edge="1" parent="1">
          <mxGeometry width="50" height="50" relative="1" as="geometry">
            <mxPoint x="710" y="340" as="sourcePoint" />
            <mxPoint x="710" y="160" as="targetPoint" />
          </mxGeometry>
        </mxCell>
        <mxCell id="xFx0nTFk6FgpMXT4F62A-31" value="-&lt;font style=&quot;font-size: 16px;&quot;&gt;0.31c&lt;/font&gt;" style="text;html=1;strokeColor=none;fillColor=none;align=center;verticalAlign=middle;whiteSpace=wrap;rounded=0;fontSize=16;" vertex="1" parent="1">
          <mxGeometry x="593.3333333333333" y="350.00333333333333" width="43.33333333333333" height="21.666666666666664" as="geometry" />
        </mxCell>
        <mxCell id="xFx0nTFk6FgpMXT4F62A-32" value="" style="endArrow=classic;html=1;rounded=0;fontSize=12;startSize=8;endSize=8;curved=1;" edge="1" parent="1">
          <mxGeometry width="50" height="50" relative="1" as="geometry">
            <mxPoint x="633.3299999999999" y="381.67" as="sourcePoint" />
            <mxPoint x="593.3299999999999" y="381.67" as="targetPoint" />
          </mxGeometry>
        </mxCell>
        <mxCell id="xFx0nTFk6FgpMXT4F62A-33" value="" style="endArrow=classic;html=1;rounded=0;fontSize=12;startSize=8;endSize=8;curved=1;" edge="1" parent="1">
          <mxGeometry width="50" height="50" relative="1" as="geometry">
            <mxPoint x="646.9766666666666" y="241.96666666666667" as="sourcePoint" />
            <mxPoint x="581.9766666666666" y="241.96666666666667" as="targetPoint" />
          </mxGeometry>
        </mxCell>
        <mxCell id="xFx0nTFk6FgpMXT4F62A-34" value="" style="endArrow=classic;html=1;rounded=0;fontSize=12;startSize=8;endSize=8;curved=1;strokeWidth=1;" edge="1" parent="1">
          <mxGeometry width="50" height="50" relative="1" as="geometry">
            <mxPoint x="646.9766666666666" y="241.96666666666667" as="sourcePoint" />
            <mxPoint x="646.9766666666666" y="176.96666666666667" as="targetPoint" />
          </mxGeometry>
        </mxCell>
        <mxCell id="xFx0nTFk6FgpMXT4F62A-35" value="C" style="text;html=1;strokeColor=none;fillColor=none;align=center;verticalAlign=middle;whiteSpace=wrap;rounded=0;fontSize=16;" vertex="1" parent="1">
          <mxGeometry x="596.1366666666665" y="187.79666666666665" width="43.33333333333333" height="43.33333333333333" as="geometry" />
        </mxCell>
        <mxCell id="xFx0nTFk6FgpMXT4F62A-36" value="&lt;font style=&quot;font-size: 16px;&quot;&gt;-0.78c&lt;/font&gt;" style="text;html=1;strokeColor=none;fillColor=none;align=center;verticalAlign=middle;whiteSpace=wrap;rounded=0;fontSize=16;" vertex="1" parent="1">
          <mxGeometry x="596.1433333333333" y="255.3033333333333" width="43.33333333333333" height="21.666666666666664" as="geometry" />
        </mxCell>
        <mxCell id="xFx0nTFk6FgpMXT4F62A-37" value="" style="endArrow=classic;html=1;rounded=0;fontSize=12;startSize=8;endSize=8;curved=1;" edge="1" parent="1">
          <mxGeometry width="50" height="50" relative="1" as="geometry">
            <mxPoint x="620" y="287" as="sourcePoint" />
            <mxPoint x="599.4699999999998" y="286.97" as="targetPoint" />
          </mxGeometry>
        </mxCell>
      </root>
    </mxGraphModel>
  </diagram>
</mxfile>
